	<svg id="horizon-icon" height="300px" width="300px" viewBox="0 0 300 300">
	<path id="cutout" d="M150,50c-5.1,0-10.2,0.4-15.1,1.1c-5.6,10.6-10.9,21.4-15.8,32.3c-5.9,13.2-10.9,26.7-14.9,40.8c-1.2,4.5-2.6,9-4,13.4
		s-2.7,8.9-4,13.4c-0.6,2-1.1,4-1.5,5.8c-0.4,1.9-0.7,3.8-0.8,5.8c-0.2,2,0.2,3,1.1,3s2-0.7,3.4-2.1l5.8-5.8
		c2.6-2.8,5.4-5.3,8.2-7.6c2.8-2.3,6-4,9.6-5.3c1.9-0.6,3.9-0.8,6-0.6c2.1,0.2,4,0.7,5.7,1.5c3.1,1.6,5.6,3.7,7.5,6.4s3.2,5.7,4,9
		c0.8,3.1,1.5,6.3,2.1,9.5s1.6,6.3,2.8,9.5c1.2,3.4,3.5,6.2,6.8,8.2s6.9,2.9,11,2.6c3.9-0.3,7.6-1.1,11-2.3s6.9-2.7,10.5-4.4
		c3.3-1.7,6.1-3.1,8.5-4.2c2.4-1.1,4.7-2,6.9-2.8c1.4-0.6,2.6-0.9,3.7-0.7c1.1,0.2,1.9,0.9,2.3,2.1c0.3,0.8,0.3,1.8-0.1,3
		c-0.4,1.2-1,2.3-1.8,3c-1.2,0.9-2.5,1.8-3.6,2.6c-1.2,0.8-2.4,1.6-3.6,2.3c-4.2,3-8.5,5.6-12.8,7.9c-4.4,2.3-9,4.4-14,6.1
		c-6.7,2.2-13.2,2.5-19.4,0.9c-5.8-1.4-10.4-3.7-13.8-6.9c-3.4-3.2-6.2-8.1-8.2-14.6c-0.8-2.2-1.4-4.4-2-6.8c-0.5-2.3-1.2-4.7-2-7
		c-0.6-2.2-2-3.6-4.1-4.3s-4.1-0.4-6,0.8c-2.2,1.6-4.3,3.4-6.3,5.4s-3.9,4.1-5.6,6.3c-2.3,3-4.6,5.9-6.7,8.9s-4.3,6-6.7,9.1
		c-1.1,1.6-2.4,3-3.9,4.2s-3,2.3-4.6,3.3c-1.2,0.8-2.6,1.2-4.2,1.2s-3-0.4-4.2-1.2c-2.6-1.7-4.4-3.8-5.3-6.2s-1-5.4-0.4-9
		c2.2-10.7,4.7-21.2,7.7-31.3c2.2-7.6,4.6-15.2,7.2-22.8c2.6-7.5,5.3-14.9,7.9-22.1c4.4-11.5,9-22.7,13.9-33.4
		c3.6-7.9,7.5-15.8,11.8-23.7C79.5,67.2,50,105.1,50,150c0,55.2,44.8,100,100,100s100-44.8,100-100S205.2,50,150,50z M232,176.6
		c-1.9,1.2-4.4,1.5-6.6,1.2c-4.5-0.4-7-4.1-6-8.6c0.4-2.3,1.6-4.2,4.1-5.1c2.9-1,6.2-0.6,8.1,1.3c2.1,2.1,2.9,4.1,2.6,6.7
		C234.1,174.1,233.2,175.9,232,176.6z"/>
	<circle id="circle" cx="150" cy="150" r="100"/>
	<path id="dot" fill="#ffffff" class="st0" d="M226.6,163.6c-1,0-2.1,0.2-3.1,0.5c-2.5,0.9-3.7,2.8-4.1,5.1c-1,4.5,1.5,8.2,6,8.6c0.5,0.1,1.1,0.1,1.6,0.1
			c1.8,0,3.6-0.4,5-1.3c1.2-0.7,2.1-2.5,2.2-4.5c0.3-2.6-0.5-4.6-2.6-6.7C230.4,164.2,228.6,163.6,226.6,163.6L226.6,163.6z"/>
	<defs>
		<clipPath id="h-clip">
			<path d="M153.5,6.8c-1.1,0-2.1,0.4-3.2,1.1c-2,1.4-3.7,3-5.1,4.7c-4.2,5.3-7.9,10.8-11.2,16.5s-6.5,11.3-9.6,16.7
				c-6.1,10.7-11.6,21.5-16.5,32.2S98.4,99.9,94,111.4c-2.6,7.2-5.3,14.6-7.9,22.1c-2.6,7.6-5,15.2-7.2,22.8
				c-3,10.1-5.5,20.6-7.7,31.3c-0.6,3.6-0.5,6.6,0.4,9s2.7,4.5,5.3,6.2c1.2,0.8,2.6,1.2,4.2,1.2s3-0.4,4.2-1.2c1.6-1,3.1-2.1,4.6-3.3
				s2.8-2.6,3.9-4.2c2.4-3.1,4.6-6.1,6.7-9.1s4.4-5.9,6.7-8.9c1.7-2.2,3.6-4.3,5.6-6.3s4.1-3.8,6.3-5.4c1.2-0.8,2.5-1.2,3.8-1.2
				c0.7,0,1.5,0.1,2.2,0.4c2.1,0.7,3.5,2.1,4.1,4.3c0.8,2.3,1.5,4.7,2,7c0.6,2.4,1.2,4.6,2,6.8c2,6.5,4.8,11.4,8.2,14.6
				c3.4,3.2,8,5.5,13.8,6.9c2.6,0.7,5.3,1,8,1c3.7,0,7.5-0.6,11.4-1.9c5-1.7,9.6-3.8,14-6.1c4.3-2.3,8.6-4.9,12.8-7.9
				c1.2-0.7,2.4-1.5,3.6-2.3c1.1-0.8,2.4-1.7,3.6-2.6c0.8-0.7,1.4-1.8,1.8-3c0.4-1.2,0.4-2.2,0.1-3c-0.4-1.2-1.2-1.9-2.3-2.1
				c-0.2,0-0.5-0.1-0.7-0.1c-0.9,0-1.9,0.3-3,0.8c-2.2,0.8-4.5,1.7-6.9,2.8s-5.2,2.5-8.5,4.2c-3.6,1.7-7.1,3.2-10.8,4.3
				c-3.4,1.2-7.1,2-11,2.3c-0.5,0-1,0.1-1.5,0.1c-3.5,0-6.6-0.9-9.5-2.7c-3.3-2-5.6-4.8-6.8-8.2c-1.2-3.2-2.2-6.3-2.8-9.5
				s-1.3-6.4-2.1-9.5c-0.8-3.3-2.1-6.3-4-9s-4.4-4.8-7.5-6.4c-1.7-0.8-3.6-1.3-5.7-1.5c-0.5,0-1-0.1-1.6-0.1c-1.5,0-3,0.2-4.4,0.7
				c-3.6,1.3-6.8,3-9.6,5.3c-2.8,2.3-5.6,4.8-8.2,7.6l-5.8,5.8c-1.4,1.4-2.5,2.1-3.4,2.1s-1.3-1-1.1-3c0.1-2,0.4-3.9,0.8-5.8
				c0.4-1.8,0.9-3.8,1.5-5.8c1.3-4.5,2.6-9,4-13.4s2.8-8.9,4-13.4c4-14.1,9-27.6,14.9-40.8c6-13.2,12.3-26.1,19.2-38.7
				c2.6-5,5.4-9.6,8.4-14c2.9-4.3,6.2-8.5,9.8-12.6c1.3-1.6,2.2-3.4,2.7-5.4c0.6-2-0.2-3.7-2.2-4.9C155.4,7.1,154.4,6.8,153.5,6.8
			L153.5,6.8z"/>
		</clipPath>
	</defs>
	<path id="h-stroke" clip-path="url(#h-clip)" fill="none" stroke="#FFFFFF" stroke-width="22" stroke-linecap="round" stroke-miterlimit="10" d="M158.7,4.3c-16.1,11.7-63.1,109.9-75.7,170c-11.2,53.7,28-22,42-20.7c14,1.3,14,38.3,27.7,41.7
		c13.7,3.3,19.7,6.9,57.8-16.7"/>
	</svg>
